# xmcd
#
# Track frame offsets:
#  150
#  17145
#  31057
#  46765
#  59200
#  73085
#  87070
#  101060
#  114785
#  126212
#  140475
#  149955
#
# Disc length: 2199 seconds
#
# Revision: 1
# Processed by: cddbd v1.5.1PL2 Copyright (c) Steve Scherf et al.
# Submitted via: Collectorz.com_Music_Collector 6.10
#
DISCID=ae08950c
DTITLE=John Lee Hooker - Plays and Sings The Blues
DYEAR=1989
DGENRE=Blues
TTITLE0=The Journey
TTITLE1=I Don't Want Your Money
TTITLE2=Hey, Baby
TTITLE3=Mad Man Blues
TTITLE4=Bluebird
TTITLE5=M. Merriweather - Worried Life Blues
TTITLE6=Apologize
TTITLE7=Lonely Boy Boogie
TTITLE8=McKinley Morganfield - Please Don't Go
TTITLE9=Dreamin' Blues
TTITLE10=Hey Boogie
TTITLE11=Just Me And My Telephone
EXTD=
EXTT0=
EXTT1=
EXTT2=
EXTT3=
EXTT4=
EXTT5=
EXTT6=
EXTT7=
EXTT8=
EXTT9=
EXTT10=
EXTT11=
PLAYORDER=
